<svg width="83" height="83" viewBox="0 0 83 83" fill="none" xmlns="http://www.w3.org/2000/svg">
<path fill-rule="evenodd" clip-rule="evenodd" d="M41.1429 37.4743C40.4611 37.4737 39.8075 37.2023 39.3258 36.72L27.0172 24.4114C26.0556 23.4618 25.2935 22.3296 24.7754 21.0815C24.2573 19.8333 23.9937 18.4942 24 17.1428C24 14.4 25.08 11.8114 27.0172 9.87426C28.9543 7.91997 31.5429 6.85712 34.2857 6.85712C36.84 6.85712 39.2572 7.78283 41.1429 9.47997C43.023 7.78346 45.4677 6.84834 48 6.85712C50.7429 6.85712 53.3315 7.93712 55.2686 9.87426C57.2229 11.8114 58.2858 14.4 58.2858 17.1428C58.2858 19.8857 57.2058 22.4743 55.2686 24.4114L42.96 36.72C42.4783 37.2023 41.8246 37.4737 41.1429 37.4743ZM34.2857 11.9828C32.9143 11.9828 31.6286 12.5143 30.6515 13.4914C29.6743 14.4685 29.1429 15.7543 29.1429 17.1257C29.1429 18.4971 29.6743 19.7828 30.6515 20.76L41.1429 31.2514L51.6343 20.76C52.6115 19.7828 53.1429 18.4971 53.1429 17.1257C53.1429 15.7543 52.6115 14.4685 51.6343 13.4914C49.6972 11.5543 46.3029 11.5543 44.3657 13.4914C44.0229 13.8343 43.7143 14.28 43.44 14.8285C43.2259 15.2542 42.8977 15.612 42.4921 15.862C42.0865 16.112 41.6194 16.2444 41.1429 16.2444C40.6664 16.2444 40.1993 16.112 39.7937 15.862C39.3881 15.612 39.0599 15.2542 38.8457 14.8285C38.5715 14.2628 38.2629 13.8343 37.92 13.4914C36.9565 12.5267 35.6493 11.984 34.2857 11.9828ZM68.9315 46.08C70.2858 45.4625 71.8162 45.3495 73.2465 45.7613C74.6768 46.1731 75.9128 47.0826 76.7315 48.3257H76.7486C78.3943 50.8114 78.0686 54.1371 75.96 56.2457L61.1315 71.0743C59.7303 72.469 58.0287 73.5247 56.1567 74.1605C54.2848 74.7964 52.2922 74.9956 50.3315 74.7428L29.8286 72H18.8572V75.4285H6.85718V70.2857H13.7143V44.5714H6.85718V39.4285H18.8572V42.8571H30.4115L35.5543 44.5714H48.8572C52.8857 44.5714 56.1772 47.7085 56.5029 51.6685L68.9315 46.08ZM57.48 67.44L72.3086 52.6114V52.6285C72.4903 52.439 72.6027 52.1937 72.6275 51.9324C72.6524 51.671 72.5884 51.409 72.4457 51.1885C72.293 50.9657 72.0676 50.8029 71.8081 50.7278C71.5485 50.6528 71.271 50.6702 71.0229 50.7771L52.0629 59.28C51.0686 59.7257 49.9886 60 48.84 60H36.1886L33.5143 62.6743L29.88 59.04L34.0629 54.8571H48.84C49.522 54.8571 50.1761 54.5862 50.6583 54.104C51.1405 53.6217 51.4115 52.9677 51.4115 52.2857C51.4115 51.6037 51.1405 50.9497 50.6583 50.4674C50.1761 49.9852 49.522 49.7143 48.84 49.7143H34.7143L29.5715 48H18.84V66.8743H30.3258L51 69.6343C53.3657 69.9428 55.7829 69.1371 57.48 67.44Z" fill="#4D9033"/>
</svg>
